<?xml version="1.0" standalone="no"?>
<!DOCTYPE svg PUBLIC "-//W3C//DTD SVG 20010904//EN"
 "http://www.w3.org/TR/2001/REC-SVG-20010904/DTD/svg10.dtd">
<svg version="1.0" xmlns="http://www.w3.org/2000/svg"
 width="1600.000000pt" height="600.000000pt" viewBox="0 0 1600.000000 600.000000"
 preserveAspectRatio="xMidYMid meet">

<g transform="translate(0.000000,600.000000) scale(0.100000,-0.100000)"
fill="#000000" stroke="none">
<path d="M13465 5090 c-11 -5 -105 -14 -210 -20 -104 -5 -226 -14 -270 -19
-209 -25 -266 -30 -339 -30 -43 -1 -95 -6 -115 -11 -20 -6 -151 -14 -291 -19
-140 -5 -282 -14 -315 -20 -33 -6 -118 -12 -190 -12 -91 -1 -140 -6 -163 -17
-30 -13 -36 -13 -65 3 -30 16 -36 16 -89 1 -84 -25 -88 -64 -12 -97 45 -19 55
-33 30 -42 -11 -4 -13 -17 -9 -49 8 -61 17 -68 85 -68 87 0 130 -31 76 -55
-16 -7 -24 -20 -26 -45 -5 -49 -14 -54 -56 -29 -30 18 -47 20 -99 17 -34 -3
-69 -8 -77 -11 -8 -4 -22 -2 -30 3 -13 8 -13 13 -2 31 18 29 8 35 -23 15 -15
-10 -31 -16 -37 -14 -7 3 18 21 55 42 54 29 67 42 67 61 0 46 -33 56 -157 49
l-112 -7 10 39 c21 85 22 106 8 115 -18 11 -473 1 -519 -11 -19 -5 -163 -14
-320 -20 -463 -16 -844 -36 -861 -44 -9 -4 -126 -11 -260 -16 -359 -14 -656
-28 -719 -35 -30 -3 -179 -12 -330 -20 -499 -27 -565 -32 -587 -43 -14 -8 -85
-12 -195 -13 -95 -1 -243 -5 -328 -10 -319 -18 -659 -39 -785 -48 -71 -5 -179
-9 -239 -10 -60 -1 -123 -5 -140 -11 -17 -5 -137 -15 -266 -20 -129 -6 -282
-13 -340 -16 -118 -5 -150 -10 -150 -24 0 -5 11 -12 25 -16 44 -11 15 -26 -41
-22 -54 5 -83 -9 -70 -31 4 -6 -24 -9 -78 -8 -63 2 -82 5 -74 14 12 14 94 43
124 43 13 0 25 4 28 9 13 20 -95 29 -136 11 -13 -5 -169 -14 -348 -19 -179 -5
-338 -12 -355 -16 -16 -3 -40 -8 -52 -11 -14 -3 -37 -27 -59 -62 -20 -31 -54
-81 -76 -109 -35 -45 -39 -58 -34 -87 5 -25 0 -46 -20 -87 -32 -62 -34 -126
-7 -147 21 -16 278 -11 328 6 17 6 50 15 75 22 46 11 106 27 208 56 83 23 123
27 162 16 34 -10 33 -10 -23 -11 -66 -1 -67 -10 -5 -42 34 -17 53 -20 121 -15
106 6 336 26 365 32 26 5 29 30 6 62 -8 12 -14 28 -11 35 2 6 16 -7 31 -30 29
-44 88 -80 109 -66 6 4 127 13 267 20 140 7 377 19 525 26 167 8 278 17 292
25 13 7 44 10 80 7 32 -3 132 0 223 6 319 20 657 39 885 49 127 6 253 15 280
20 28 6 156 15 285 20 129 6 300 14 380 19 80 5 166 9 192 10 52 1 79 20 71
50 -6 24 13 61 33 61 11 0 12 -4 5 -18 -6 -11 -6 -24 0 -35 8 -14 19 -16 67
-11 75 9 83 16 70 60 -13 48 -4 53 32 19 19 -19 30 -39 30 -57 0 -20 6 -29 23
-33 47 -12 796 19 841 35 16 5 38 10 50 10 12 0 43 11 69 23 l48 24 -23 15
c-13 9 -20 19 -17 23 4 3 23 -8 42 -24 40 -36 60 -38 104 -12 17 11 51 25 75
31 66 18 101 39 94 56 -3 9 8 2 24 -15 17 -16 39 -33 50 -36 22 -7 59 10 62
28 0 7 2 17 3 22 2 6 3 22 4 38 1 27 2 27 25 12 17 -12 43 -15 92 -13 l69 3 0
44 c0 43 1 44 40 55 30 9 45 20 60 49 11 20 28 40 38 43 32 10 162 -74 238
-155 65 -68 71 -77 66 -107 -10 -60 28 -55 173 26 49 27 100 39 100 24 0 -3
-14 -17 -30 -31 -17 -13 -28 -29 -24 -34 3 -5 52 -9 109 -9 102 0 105 1 140
31 25 22 35 27 35 16 0 -16 37 -34 55 -27 6 2 152 7 325 10 327 7 378 13 420
52 11 10 20 29 20 42 0 13 8 31 19 40 23 21 86 32 95 17 5 -7 -5 -11 -28 -11
-19 0 -38 -5 -42 -12 -9 -14 23 -38 52 -38 34 0 76 22 70 36 -3 7 15 0 39 -14
44 -27 46 -36 10 -45 -11 -3 129 -4 310 -2 259 3 355 8 446 23 127 20 139 25
139 52 0 61 31 65 90 10 49 -45 52 -46 74 -25 9 9 17 11 21 5 3 -5 11 -10 18
-10 8 0 8 3 -1 12 -18 18 -15 28 8 28 11 0 20 -6 20 -14 0 -20 34 -24 174 -18
146 5 192 -6 258 -66 44 -40 98 -138 98 -177 0 -15 5 -35 11 -47 18 -34 29
-160 40 -443 5 -148 14 -284 19 -301 6 -17 10 -48 10 -70 0 -54 10 -66 46 -56
16 5 40 6 54 2 21 -5 18 -8 -22 -14 -32 -5 -53 -14 -63 -29 -17 -25 -20 -122
-5 -162 l10 -27 33 20 c39 24 93 39 167 47 63 6 84 23 86 68 1 17 5 42 9 53 5
17 -3 32 -39 70 -44 48 -45 49 -23 61 25 14 71 8 102 -13 11 -8 25 -14 31 -14
20 0 25 32 9 57 -11 16 -14 34 -10 53 6 25 3 29 -29 40 -56 18 -54 48 2 41 11
-2 12 10 7 53 -9 68 4 90 47 81 44 -10 36 24 -18 81 -25 27 -50 57 -56 67 -9
17 -6 18 35 12 35 -5 47 -3 62 11 16 17 17 32 12 172 -3 84 -10 167 -16 185
-5 18 -17 68 -27 112 -18 84 -91 250 -141 323 -92 134 -273 247 -458 284 -64
14 -643 20 -670 8z m65 -301 c0 -6 -9 -22 -20 -36 -13 -17 -18 -33 -14 -49 5
-21 3 -24 -20 -24 -26 0 -35 13 -16 25 6 4 10 15 8 26 -2 10 8 30 22 43 27 27
40 32 40 15z m-3471 -225 c2 -2 -5 -6 -15 -10 -10 -4 -46 -18 -79 -31 -106
-44 -167 -64 -187 -61 -22 3 147 97 196 108 27 7 74 3 85 -6z m-831 -108 c33
-17 76 -63 50 -53 -9 3 -34 9 -55 13 -42 7 -83 29 -83 44 0 15 57 12 88 -4z
m-2156 -31 c-1 -5 -28 -10 -60 -10 -52 0 -57 -2 -56 -22 0 -21 -3 -21 -87 -20
-66 2 -85 5 -77 14 10 12 82 38 128 46 46 8 155 2 152 -8z m-1752 -124 c0 -55
-16 -59 -38 -12 -22 44 -20 51 15 51 20 0 23 -5 23 -39z"/>
<path d="M2175 4861 c-11 -5 -54 -16 -95 -26 -136 -32 -339 -148 -451 -259
-126 -123 -180 -202 -231 -334 -40 -105 -57 -173 -67 -262 -5 -41 -12 -84 -16
-96 -12 -39 17 -54 108 -54 96 0 154 14 161 38 2 9 7 49 11 87 11 109 63 244
135 350 36 52 80 140 80 159 0 33 41 56 100 56 36 0 82 9 126 26 94 34 152 46
264 51 133 7 231 -16 365 -84 68 -35 83 -45 171 -115 36 -29 123 -145 153
-204 22 -45 61 -178 61 -210 0 -45 15 -51 143 -56 129 -6 134 -3 119 74 -35
186 -103 356 -184 463 -146 192 -367 324 -661 394 -53 12 -261 14 -292 2z"/>
<path d="M13492 4101 c-40 -4 -66 -12 -72 -21 -17 -26 -12 -175 25 -870 32
-601 28 -550 50 -566 21 -16 37 -16 412 3 195 10 188 4 178 152 -4 61 -11 109
-15 106 -5 -3 -10 5 -12 17 -4 29 -43 35 -114 18 -65 -16 -104 -8 -99 20 2 11
-2 25 -8 32 -9 8 -12 40 -9 107 2 53 -2 177 -8 276 -14 222 -27 501 -29 617
-1 116 -4 118 -134 116 -56 0 -130 -4 -165 -7z"/>
<path d="M12845 4069 c-172 -8 -260 -20 -277 -37 -13 -13 -20 -85 -38 -372 -5
-91 -14 -178 -19 -195 -5 -16 -12 -106 -16 -200 -4 -93 -11 -183 -16 -200 -5
-16 -13 -104 -19 -195 -5 -91 -12 -188 -16 -216 -9 -75 7 -87 105 -80 42 4
116 9 166 12 49 3 95 10 102 16 8 6 13 33 12 67 0 58 13 154 25 181 5 11 20
14 65 12 l59 -4 6 -36 c3 -21 10 -68 15 -107 5 -38 13 -78 16 -88 10 -24 41
-30 122 -23 37 3 109 9 158 12 94 6 120 17 109 43 -8 21 -51 216 -79 366 -7
39 -21 104 -30 145 -9 41 -22 107 -30 145 -7 39 -21 106 -30 150 -9 44 -23
114 -31 155 -19 98 -39 197 -59 290 -9 41 -19 91 -22 110 -3 19 -10 41 -15 48
-11 13 -12 13 -263 1z m53 -549 c6 -14 16 -72 21 -130 6 -58 15 -140 22 -184
10 -65 9 -80 -2 -87 -15 -10 -89 -3 -101 9 -8 9 -15 261 -7 256 10 -6 19 112
13 160 -4 24 -3 75 1 113 l8 68 17 -90 c9 -49 22 -101 28 -115z"/>
<path d="M12150 4030 c-8 -5 -59 -10 -112 -10 -128 0 -131 -3 -124 -124 5 -86
16 -284 51 -931 24 -443 23 -438 86 -416 18 6 89 11 159 11 100 0 130 3 140
15 14 17 5 427 -10 505 -6 25 -14 162 -20 305 -19 482 -26 610 -39 633 -10 18
-20 22 -64 22 -29 0 -59 -5 -67 -10z"/>
<path d="M11545 4001 c-11 -5 -132 -12 -269 -16 -307 -9 -286 3 -286 -162 0
-65 4 -124 9 -132 10 -15 26 -15 136 -5 54 5 74 3 82 -8 7 -8 14 -67 17 -138
3 -69 12 -258 21 -420 9 -162 19 -360 21 -440 3 -85 10 -150 16 -158 12 -14
25 -13 268 4 47 3 91 10 97 16 16 13 17 50 3 92 -5 17 -15 157 -20 311 -24
668 -26 700 -39 723 -22 41 -10 48 94 50 127 4 139 10 131 70 -3 26 -6 82 -5
124 0 67 -2 78 -20 87 -23 13 -226 14 -256 2z"/>
<path d="M10657 3951 c-34 -4 -62 -12 -68 -21 -9 -14 -7 -165 6 -415 4 -61 2
-133 -2 -160 l-9 -50 -17 60 c-10 33 -24 74 -31 90 -7 17 -35 86 -60 155 -26
69 -54 141 -61 160 -7 19 -21 57 -31 83 -26 72 -38 77 -181 77 -173 0 -165 13
-158 -233 4 -105 10 -208 15 -227 5 -19 14 -154 20 -300 5 -146 14 -341 19
-435 5 -93 9 -189 10 -212 2 -62 18 -73 112 -73 74 0 155 13 189 30 17 8 17
53 0 280 -5 74 -13 185 -18 245 -4 61 -7 112 -5 114 3 5 31 -65 45 -112 6 -23
19 -51 29 -62 10 -11 40 -85 68 -165 79 -233 99 -282 113 -291 25 -16 229 -9
278 9 l45 18 -4 144 c-2 80 -9 161 -15 181 -8 21 -11 67 -8 111 6 110 -16 500
-29 508 -6 4 -7 18 -3 34 3 15 3 119 -1 232 -6 159 -11 208 -22 219 -15 16
-111 18 -226 6z"/>
<path d="M9755 3911 c-11 -5 -116 -11 -233 -15 -117 -4 -219 -9 -227 -12 -8
-4 -18 -17 -21 -31 -7 -26 9 -439 27 -718 6 -93 12 -218 12 -277 1 -58 5 -110
10 -114 4 -4 7 -75 7 -158 0 -83 5 -158 10 -166 6 -10 24 -14 57 -13 283 11
553 26 573 32 l25 8 -4 129 c-2 71 -7 137 -13 147 -10 19 -31 20 -202 1 -32
-3 -62 -2 -67 3 -4 4 -11 60 -14 123 -3 63 -11 132 -17 153 -6 20 -8 40 -5 43
4 4 59 7 122 8 91 1 118 4 125 16 6 8 8 21 5 28 -3 8 -5 58 -5 112 0 133 -1
133 -135 124 -56 -3 -105 -3 -108 2 -3 5 -8 69 -12 142 l-8 132 107 0 c129 0
146 7 146 59 0 21 -3 41 -6 44 -4 4 -6 44 -5 90 3 102 -7 117 -77 116 -26 0
-56 -4 -67 -8z"/>
<path d="M8630 3850 c-8 -5 -73 -10 -145 -10 -144 0 -244 -13 -257 -32 -4 -7
-5 -22 -2 -33 4 -11 13 -146 20 -300 8 -154 21 -413 30 -575 8 -162 17 -345
20 -407 4 -76 9 -115 19 -123 15 -12 485 2 606 18 134 18 209 77 235 183 17
69 15 177 -16 764 -22 431 -79 501 -420 521 -42 3 -82 0 -90 -6z m92 -278 c25
-23 27 -31 32 -136 3 -61 10 -185 16 -276 5 -91 11 -238 12 -327 2 -147 1
-163 -17 -183 -14 -15 -28 -20 -54 -18 -35 3 -36 5 -39 46 -2 23 -6 41 -10 38
-4 -2 -8 51 -8 117 -2 159 -14 388 -21 407 -7 18 -4 327 3 353 7 23 50 13 86
-21z"/>
<path d="M7882 3811 c-148 -6 -155 -7 -174 -30 -17 -22 -19 -35 -14 -115 3
-50 11 -215 18 -366 7 -151 16 -280 21 -287 7 -11 14 -225 16 -510 1 -117 4
-144 18 -158 14 -15 35 -16 172 -10 177 8 187 9 201 35 11 20 2 163 -9 156 -3
-2 -6 51 -5 117 1 67 -3 185 -7 262 -5 77 -15 277 -23 445 -8 168 -15 309 -16
313 0 5 -4 6 -8 3 -5 -3 -6 20 -4 50 5 64 -3 105 -21 102 -6 -1 -81 -4 -165
-7z"/>
<path d="M7475 3790 c-11 -5 -60 -9 -110 -9 -49 -1 -155 -4 -234 -8 -191 -8
-184 -2 -177 -171 3 -70 10 -251 16 -402 6 -151 15 -288 21 -305 5 -16 12
-151 15 -300 6 -301 10 -324 62 -310 15 4 94 10 175 14 96 4 150 10 155 18 9
14 3 105 -7 99 -3 -2 -6 57 -7 132 0 163 -8 317 -19 355 -8 31 -17 29 128 31
66 1 90 5 97 16 14 22 13 243 -2 258 -8 8 -43 10 -118 5 -127 -7 -118 -19
-121 157 -1 63 -5 117 -10 121 -5 3 44 3 109 1 156 -6 152 -10 152 153 0 99
-3 127 -16 139 -17 17 -76 20 -109 6z"/>
<path d="M3150 3759 c-14 -4 -151 -13 -305 -19 -154 -6 -343 -15 -420 -20 -77
-6 -191 -13 -253 -18 -113 -7 -114 -7 -141 -41 -26 -32 -31 -34 -73 -29 -44 5
-47 4 -83 -38 -40 -48 -71 -56 -98 -26 -23 25 -21 33 11 59 23 19 25 24 12 33
-19 12 -60 13 -79 1 -8 -5 -22 -24 -30 -42 -9 -18 -23 -36 -31 -40 -36 -19
-91 -41 -93 -38 -2 2 -9 26 -15 54 -20 77 -17 76 -166 69 -143 -7 -192 -22
-213 -64 -15 -28 -14 -68 12 -550 39 -743 45 -859 55 -1078 16 -348 -6 -329
348 -313 141 6 381 16 532 21 151 6 289 14 305 19 17 5 140 13 275 16 222 6
252 9 319 31 82 27 134 30 170 10 19 -11 58 -13 168 -8 132 5 145 3 157 -13
12 -17 18 -18 54 -7 49 15 67 34 54 59 -5 10 -13 123 -17 252 -5 162 -11 244
-21 267 -10 24 -12 57 -7 123 5 73 3 99 -12 136 -12 33 -15 58 -10 88 8 46 9
222 1 243 -2 6 -7 115 -10 241 -8 296 -12 320 -66 384 -36 43 -41 55 -36 81 5
24 0 39 -19 64 -19 25 -24 40 -19 60 4 17 2 29 -7 35 -18 11 -216 10 -249 -2z
m-667 -535 c86 -44 127 -117 127 -231 0 -46 -6 -85 -15 -103 -32 -63 -47 -123
-41 -174 9 -87 35 -278 45 -336 14 -78 13 -174 -1 -188 -8 -8 -53 -12 -135
-12 -67 0 -142 -5 -166 -12 -55 -14 -117 -4 -117 20 0 10 5 23 10 28 11 11 29
301 30 468 l0 99 -59 59 c-53 53 -62 58 -81 48 -23 -13 -43 -3 -61 32 -16 29
-2 55 47 89 28 19 53 48 69 79 27 53 90 117 133 136 41 19 177 17 215 -2z"/>
<path d="M6554 3741 c-89 -11 -86 -1 -79 -265 3 -127 8 -265 11 -306 3 -44 2
-71 -4 -65 -14 16 -52 116 -52 137 0 11 -32 101 -71 201 -99 254 -101 257
-120 268 -46 24 -258 4 -290 -28 -12 -12 -1 -396 21 -728 5 -77 15 -264 22
-415 7 -151 17 -281 21 -287 6 -9 40 -13 115 -13 114 0 180 11 192 30 10 16 0
265 -12 315 -6 22 -9 77 -9 122 1 48 -2 84 -8 88 -6 3 -11 32 -10 63 l0 57 20
-45 c11 -24 25 -50 31 -58 6 -7 20 -37 30 -65 31 -88 85 -249 102 -307 9 -30
29 -80 44 -110 l27 -55 120 -3 c150 -4 183 2 197 33 14 32 -4 461 -21 478 -6
6 -11 16 -11 22 0 5 5 3 10 -5 8 -13 10 -12 10 3 0 9 -4 17 -10 17 -6 0 -8 36
-5 93 6 103 -11 442 -22 460 -4 7 -6 58 -4 113 4 127 -7 231 -26 250 -15 15
-117 17 -219 5z"/>
<path d="M5225 3691 c-53 -13 -151 -71 -195 -114 -23 -23 -55 -69 -71 -103
-29 -61 -29 -62 -28 -245 2 -293 29 -723 50 -787 16 -49 69 -130 111 -168 18
-18 58 -45 88 -60 51 -26 66 -29 187 -32 183 -5 270 23 364 121 98 101 94 80
92 496 -1 213 -6 375 -12 390 -5 14 -12 74 -14 132 -4 90 -9 115 -31 160 -34
71 -113 152 -178 186 -49 24 -64 27 -193 29 -77 2 -154 0 -170 -5z m172 -253
c21 -27 26 -72 40 -338 22 -413 26 -649 12 -666 -16 -20 -63 -17 -83 5 -13 15
-19 51 -26 180 -5 89 -11 165 -14 169 -4 7 -20 425 -21 563 0 42 5 72 14 82
16 20 64 22 78 5z"/>
<path d="M4300 3651 c-8 -5 -42 -12 -75 -16 -67 -8 -174 -57 -230 -107 -20
-17 -54 -67 -76 -110 l-40 -79 5 -162 c6 -194 23 -546 30 -602 24 -193 48
-264 114 -333 26 -28 76 -65 112 -83 64 -33 67 -33 205 -34 147 0 181 7 278
56 57 30 145 122 173 183 22 47 24 64 24 213 0 137 -2 164 -17 178 -11 12 -24
15 -42 10 -14 -4 -86 -10 -159 -14 -117 -5 -135 -8 -148 -25 -11 -15 -14 -57
-14 -176 0 -170 -3 -180 -55 -180 -62 0 -68 13 -78 168 -6 78 -13 140 -16 138
-3 -3 -5 28 -3 67 5 105 -16 469 -28 481 -19 19 -12 115 11 147 17 24 27 29
63 29 27 0 48 -6 56 -15 9 -10 16 -69 21 -163 9 -166 16 -218 33 -230 6 -4 84
-6 174 -3 188 7 193 9 185 89 -3 26 -7 54 -10 62 -3 8 -5 42 -4 75 5 173 -73
316 -213 387 -82 41 -241 70 -276 49z"/>
<path d="M14530 3233 c0 -25 0 -25 -62 -18 -120 14 -108 33 -108 -181 0 -110
4 -193 10 -205 6 -11 12 -99 13 -207 2 -175 0 -190 -21 -236 -12 -26 -36 -65
-54 -85 -35 -40 -105 -91 -126 -91 -8 0 -38 -7 -68 -16 -46 -13 -59 -22 -81
-57 -59 -94 -129 -123 -180 -75 -22 20 -26 21 -56 9 -18 -8 -79 -30 -137 -51
-126 -45 -215 -84 -248 -111 -29 -22 -52 -25 -52 -5 0 8 -8 24 -18 36 -17 21
-20 22 -48 8 -42 -22 -92 -30 -96 -16 -6 17 -35 3 -49 -24 -12 -23 -12 -23 9
-5 12 11 22 14 26 8 4 -5 -13 -21 -36 -35 -39 -23 -43 -24 -46 -8 -7 31 -20
35 -50 13 -22 -15 -45 -21 -87 -21 -47 0 -60 4 -79 25 -35 37 -40 70 -19 127
l18 50 -24 19 c-32 26 -173 27 -227 1 -28 -13 -38 -14 -41 -4 -8 22 -32 13
-39 -15 -4 -16 -9 -31 -11 -36 -7 -12 -41 11 -48 33 -6 19 -8 19 -28 5 -29
-20 -49 -19 -45 3 5 27 -56 28 -113 1 -39 -18 -53 -20 -77 -11 -17 6 -56 9
-88 7 -35 -2 -71 2 -92 11 -40 17 -326 20 -376 4 -17 -5 -85 -14 -151 -20
-112 -9 -353 -34 -455 -46 -25 -2 -126 -9 -225 -15 -99 -5 -290 -16 -425 -24
-135 -8 -328 -19 -430 -24 -241 -13 -244 -14 -269 -56 -11 -19 -25 -35 -32
-35 -7 0 -6 9 5 25 9 13 16 29 16 35 0 20 -39 10 -58 -15 -25 -32 -86 -34
-136 -4 -38 22 -55 18 -90 -20 -24 -27 -56 -28 -56 -2 0 39 -54 41 -116 5 -33
-19 -43 -22 -38 -10 8 21 -37 39 -68 27 -13 -5 -124 -11 -248 -15 -124 -4
-245 -11 -270 -17 -25 -5 -169 -14 -320 -19 -417 -15 -688 -29 -760 -40 -36
-5 -166 -14 -290 -20 -275 -12 -726 -38 -875 -50 -60 -5 -231 -16 -380 -25
-781 -44 -1143 -68 -1200 -80 -33 -6 -487 -27 -600 -26 -125 0 -352 19 -375
31 -34 18 -60 -2 -99 -76 -19 -36 -45 -81 -58 -100 -12 -19 -23 -40 -23 -47 0
-7 5 -4 11 6 5 9 15 17 21 17 5 0 27 13 47 29 20 15 47 34 61 41 31 17 99 30
105 20 2 -4 -33 -28 -78 -55 -134 -78 -177 -107 -177 -117 0 -5 -15 -15 -34
-23 -36 -15 -76 -58 -76 -81 0 -42 215 -112 415 -136 143 -17 461 -9 640 17
57 8 322 24 595 36 129 5 251 14 270 19 19 5 139 14 265 20 244 11 696 36 805
45 36 3 155 10 265 16 187 9 294 15 955 54 140 8 363 19 495 25 132 5 265 12
295 15 52 5 242 17 820 50 609 36 779 46 1015 60 138 8 365 22 505 30 140 8
368 22 505 30 138 8 358 20 490 25 132 6 256 15 275 20 19 5 127 12 240 15
113 3 213 8 222 11 23 7 27 33 11 66 -9 19 -10 29 -2 34 13 7 29 -13 29 -37 0
-37 28 -44 162 -41 71 2 140 7 154 12 14 6 176 10 367 11 448 1 753 18 862 47
22 6 74 18 115 28 104 23 258 104 330 173 44 42 136 186 168 264 51 122 76
332 64 533 -9 165 -21 194 -75 194 -23 0 -41 8 -56 24 -21 22 -22 30 -16 86 6
51 4 64 -11 81 -9 10 -21 19 -25 19 -9 0 -34 -78 -31 -96 1 -6 -7 -19 -18 -29
-20 -18 -21 -18 -42 3 -27 27 -11 52 29 44 20 -4 24 -2 17 9 -5 8 -7 55 -6
105 4 101 0 108 -60 117 -35 5 -38 4 -38 -20z m157 -345 c19 -21 43 -61 43
-71 0 -3 -11 -7 -25 -9 -18 -4 -25 -1 -25 11 -1 9 -7 33 -14 54 -16 42 -9 47
21 15z m85 -193 c12 -14 30 -25 40 -25 10 0 18 -5 18 -11 0 -9 -17 -48 -27
-58 -2 -3 -19 11 -38 29 -24 23 -35 43 -35 62 0 35 14 36 42 3z m-2182 -787
c0 -32 -11 -68 -20 -68 -10 0 -39 77 -32 84 3 3 16 6 29 6 17 0 23 -6 23 -22z
m-143 -201 c16 -32 16 -32 -13 -41 -18 -5 -22 -1 -27 26 -4 18 -9 44 -13 58
l-7 25 22 -20 c13 -11 30 -33 38 -48z"/>
</g>
</svg>
