<?xml version="1.0" standalone="no"?>
<!DOCTYPE svg PUBLIC "-//W3C//DTD SVG 20010904//EN"
 "http://www.w3.org/TR/2001/REC-SVG-20010904/DTD/svg10.dtd">
<svg version="1.0" xmlns="http://www.w3.org/2000/svg"
 width="1024.000000pt" height="187.000000pt" viewBox="0 0 1024.000000 187.000000"
 preserveAspectRatio="xMidYMid meet">

<g transform="translate(0.000000,187.000000) scale(0.100000,-0.100000)"
fill="#000000" stroke="none">
<path d="M9645 1834 c-225 -12 -518 -30 -650 -38 -132 -9 -261 -16 -287 -15
-26 0 -57 -5 -69 -12 -17 -8 -23 -8 -29 1 -6 9 -30 11 -91 6 -46 -4 -199 -11
-339 -16 -161 -6 -274 -15 -307 -24 -31 -8 -55 -10 -59 -5 -10 17 -55 9 -99
-16 l-43 -26 -39 22 c-34 19 -47 21 -133 15 -283 -18 -285 -18 -298 -38 -16
-22 -36 -24 -28 -2 7 19 -28 18 -529 -7 -272 -13 -270 -13 -285 -49 -7 -17
-18 -30 -25 -30 -8 0 -20 -3 -29 -6 -11 -4 -16 -1 -16 10 0 9 8 16 19 16 11 0
23 5 26 10 4 7 -2 9 -19 4 -29 -7 -37 11 -8 20 22 7 -250 -3 -300 -11 -34 -5
-37 -8 -32 -29 4 -15 2 -24 -6 -24 -6 0 -14 9 -17 19 -7 27 -28 30 -181 25
-234 -7 -318 -14 -368 -29 -31 -9 -52 -11 -58 -5 -17 17 -55 11 -97 -16 -39
-24 -42 -25 -60 -8 -10 9 -19 14 -19 9 0 -4 -6 -3 -12 2 -15 12 -85 10 -443
-10 -148 -9 -335 -18 -415 -21 -204 -8 -883 -43 -1080 -57 -144 -9 -168 -13
-187 -32 l-23 -20 0 21 c0 19 -4 21 -47 17 -27 -3 -147 -10 -268 -15 -121 -6
-287 -15 -370 -21 -82 -5 -178 -11 -212 -12 -34 -2 -68 -9 -76 -16 -12 -9 -17
-9 -23 0 -7 12 -159 9 -449 -11 -272 -19 -693 -42 -910 -50 -199 -7 -264 -12
-333 -26 -19 -4 -21 -8 -12 -24 14 -26 -23 -49 -46 -29 -14 11 -13 15 8 31
l23 18 -34 -7 c-18 -3 -36 -2 -40 4 -3 5 -49 8 -109 5 -85 -4 -102 -7 -98 -19
3 -8 6 -26 6 -41 0 -20 3 -23 12 -14 16 16 28 15 28 -2 0 -8 -10 -16 -22 -18
-15 -2 -23 -10 -23 -23 0 -18 6 -20 55 -18 30 1 154 4 275 8 121 4 247 12 280
19 33 7 83 11 110 9 28 -3 313 10 635 27 473 25 587 34 596 45 13 18 49 21 38
4 -11 -19 618 12 641 31 10 8 19 9 27 3 8 -6 68 -6 153 -2 77 4 250 13 385 19
135 6 306 15 380 20 74 6 297 17 495 25 594 24 593 24 602 49 4 11 6 25 5 29
-1 5 10 7 25 5 20 -2 29 -9 31 -25 3 -21 9 -23 61 -23 90 0 124 9 118 31 -8
30 12 33 23 3 l11 -27 90 6 c97 6 110 10 91 29 -20 20 -14 37 10 30 26 -6 17
13 -19 41 -13 10 -21 22 -18 27 8 14 44 -1 50 -21 4 -12 16 -19 31 -19 29 0
60 -29 56 -53 -3 -14 4 -17 46 -17 29 0 52 5 54 12 5 14 48 22 48 8 0 -6 7
-10 15 -10 8 0 15 9 15 21 0 11 4 18 9 14 15 -8 68 28 63 43 -3 10 4 13 22 10
31 -3 36 -21 9 -28 -25 -7 -73 -40 -73 -51 0 -4 21 -6 48 -4 26 3 131 8 235
11 l187 6 0 39 c0 40 22 55 34 24 3 -8 1 -15 -5 -15 -6 0 -9 -10 -7 -22 3 -22
7 -23 73 -20 94 3 399 19 615 32 96 6 209 13 250 15 91 5 550 27 603 29 20 0
37 3 37 6 0 3 24 6 53 5 l52 0 3 38 c3 34 6 37 33 37 19 0 29 -5 29 -15 0 -8
5 -15 10 -15 6 0 10 -9 10 -20 0 -17 7 -20 44 -20 25 0 46 5 48 12 5 13 48 19
48 6 0 -4 7 -8 15 -8 8 0 15 7 15 15 0 8 7 15 15 15 9 0 27 7 40 16 33 22 32
9 -2 -21 l-28 -24 145 5 c262 8 323 13 330 24 5 9 13 9 27 2 26 -14 136 -3
146 14 12 20 41 18 33 -2 -5 -14 3 -15 66 -10 40 4 172 11 293 16 417 19 556
30 578 45 28 19 48 19 23 0 -19 -14 -18 -15 17 -15 26 0 43 7 63 28 25 26 26
26 19 4 l-7 -23 164 6 c89 3 207 11 261 17 108 11 102 6 91 92 l-7 46 -51 -1
c-28 -1 -235 -12 -461 -25z m-238 -58 c-4 -9 -11 -16 -17 -16 -11 0 -14 33 -3
44 11 10 26 -11 20 -28z m365 -4 c-30 -4 -55 5 -47 17 3 6 18 5 38 -2 29 -11
30 -12 9 -15z m-1977 -52 c7 -11 -34 -55 -42 -46 -8 8 14 56 26 56 5 0 12 -4
16 -10z m1167 -12 c-6 -6 -15 -8 -19 -4 -4 4 -1 11 7 16 19 12 27 3 12 -12z
m88 -14 c0 -11 -5 -14 -16 -10 -9 4 -23 1 -32 -6 -13 -11 -14 -10 -10 2 2 8
15 17 29 21 13 4 25 7 27 8 1 1 2 -6 2 -15z m-1033 -10 c2 -6 -5 -14 -17 -17
-11 -3 -20 -4 -20 -2 0 2 -3 11 -6 20 -5 13 -2 16 16 13 13 -1 25 -8 27 -14z
m-197 -3 c0 -12 -20 -25 -27 -18 -7 7 6 27 18 27 5 0 9 -4 9 -9z m-504 -58
c-8 -8 -36 5 -36 17 0 7 6 7 21 0 11 -7 18 -14 15 -17z m-1051 -13 c0 -24 -32
-24 -38 0 -4 17 -1 21 16 18 12 -2 22 -10 22 -18z m208 -9 c6 -23 -20 -38 -37
-21 -7 7 -6 10 2 10 7 0 12 7 12 15 0 22 17 18 23 -4z m794 -11 c4 -12 2 -12
-5 -2 -6 9 -18 11 -35 6 -18 -4 -27 -2 -27 6 0 17 63 8 67 -10z m-1927 -6 c0
-2 -9 -13 -21 -25 -28 -28 -49 -10 -23 19 14 17 44 21 44 6z m730 6 c0 -5 -9
-10 -21 -10 -11 0 -17 5 -14 10 3 6 13 10 21 10 8 0 14 -4 14 -10z m0 -30 c11
-7 9 -11 -13 -19 -52 -20 -80 -25 -73 -12 4 6 18 11 32 11 15 0 24 6 24 15 0
17 9 19 30 5z m-720 -15 c0 -8 -4 -15 -9 -15 -13 0 -22 16 -14 24 11 11 23 6
23 -9z m-750 -5 c0 -12 -45 -24 -59 -15 -22 13 -10 25 24 25 19 0 35 -4 35
-10z m220 -30 c0 -12 -28 -25 -36 -17 -9 9 6 27 22 27 8 0 14 -5 14 -10z m75
1 c10 -17 -11 -21 -31 -6 -18 14 -18 14 3 15 12 0 24 -4 28 -9z m-370 -21 c3
-5 -3 -10 -15 -10 -12 0 -18 5 -15 10 3 6 10 10 15 10 5 0 12 -4 15 -10z m329
-6 c22 -9 10 -24 -20 -24 -23 0 -31 10 -17 23 8 9 17 9 37 1z m-1704 -82 c-17
-6 -42 7 -35 18 4 6 13 5 26 -3 10 -6 15 -13 9 -15z m-50 -21 c0 -3 -13 -5
-30 -5 -40 2 -42 3 -36 12 6 10 66 3 66 -7z m-731 -21 c-21 -14 -32 1 -12 15
12 9 19 10 22 3 2 -6 -3 -14 -10 -18z m-952 -55 c-23 -12 -32 -4 -23 21 4 12
9 12 25 2 19 -12 19 -12 -2 -23z m-837 -15 l23 -20 -24 -9 c-26 -10 -59 10
-59 36 0 19 34 16 60 -7z m-364 -36 c-5 -14 -9 -15 -19 -5 -9 9 -9 14 3 21 18
11 24 6 16 -16z"/>
<path d="M9535 1626 c-3 -9 -7 -23 -10 -31 -2 -8 -12 -15 -22 -15 -13 0 -14 3
-5 12 23 23 12 31 -30 24 -92 -15 -173 -89 -228 -208 -72 -155 -54 -397 39
-536 27 -41 112 -112 135 -112 5 0 19 -9 31 -20 27 -25 160 -44 256 -38 75 6
128 30 110 52 -22 26 4 39 64 31 56 -7 57 -6 94 33 76 80 111 188 111 346 0
124 -21 220 -52 237 -12 7 -17 17 -13 28 8 25 -53 101 -112 140 -67 44 -132
62 -255 68 -94 5 -108 4 -113 -11z m90 -27 c9 -13 5 -16 -20 -21 -12 -2 -21 3
-23 15 -4 19 32 25 43 6z m-235 -109 c0 -5 -9 -10 -21 -10 -11 0 -17 5 -14 10
3 6 13 10 21 10 8 0 14 -4 14 -10z m358 -21 c27 -14 57 -40 79 -70 19 -27 38
-47 42 -45 4 3 13 -48 19 -112 18 -182 18 -197 -1 -217 -10 -10 -21 -31 -24
-47 -3 -16 -16 -36 -29 -45 -13 -8 -26 -23 -29 -34 -4 -10 -15 -19 -26 -19
-10 0 -29 -10 -40 -21 -18 -18 -30 -21 -78 -16 -31 2 -93 19 -138 37 -70 26
-83 35 -83 54 0 12 -6 30 -13 41 -14 18 -21 18 -89 -10 -10 -4 -18 -3 -18 3 0
6 20 18 43 27 l44 16 -14 52 c-20 74 -12 217 16 282 60 137 204 189 339 124z
m212 -64 c0 -10 -40 -24 -54 -19 -28 11 -17 24 19 24 19 0 35 -2 35 -5z m-703
-211 c-7 -7 -37 7 -37 17 0 6 9 5 21 -1 11 -7 19 -14 16 -16z m77 -23 c3 -5
-1 -11 -9 -15 -15 -6 -29 7 -18 18 9 9 21 8 27 -3z m581 -361 c-3 -5 -12 -7
-20 -3 -21 7 -19 13 6 13 11 0 18 -4 14 -10z"/>
<path d="M7668 1613 c7 -3 16 -2 19 1 4 3 -2 6 -13 5 -11 0 -14 -3 -6 -6z"/>
<path d="M8802 1590 c-80 -7 -107 -13 -116 -26 -7 -9 -18 -14 -24 -10 -6 4
-24 0 -40 -8 -27 -14 -31 -14 -47 4 -15 16 -31 20 -84 20 -91 0 -140 -15 -151
-46 -14 -36 -12 -49 9 -75 18 -23 25 -24 144 -24 69 0 128 -3 131 -6 3 -3 10
-94 15 -202 5 -108 13 -202 17 -208 4 -7 6 -43 6 -81 -1 -39 3 -78 8 -88 7
-13 7 -21 0 -25 -5 -3 -10 -24 -10 -46 0 -69 78 -127 136 -100 32 14 31 33 -1
25 -15 -4 -25 -2 -25 5 0 6 15 11 34 11 19 0 38 5 41 10 4 6 3 35 0 65 -6 47
-10 55 -25 50 -10 -3 -21 -2 -24 4 -3 5 5 12 19 15 21 5 25 12 25 41 0 36 -16
338 -25 462 l-5 72 38 7 c20 3 46 16 57 29 18 21 23 21 55 9 19 -7 29 -13 23
-13 -7 -1 -13 -6 -13 -12 0 -13 48 -6 92 14 52 23 61 93 15 114 -36 16 -160
22 -275 13z m18 -21 c0 -25 -33 -68 -52 -69 -18 0 -6 49 15 63 26 19 37 21 37
6z m-107 -54 c-3 -17 -30 -17 -37 0 -4 13 -1 16 17 13 12 -2 21 -7 20 -13z
m317 5 c0 -13 -28 -25 -38 -16 -3 4 0 11 8 16 20 13 30 12 30 0z m-450 -48 c0
-5 -11 -14 -25 -20 -26 -12 -33 -4 -13 16 14 14 38 16 38 4z m463 -9 c-7 -2
-19 -2 -25 0 -7 3 -2 5 12 5 14 0 19 -2 13 -5z m-323 -58 c0 -7 11 -16 25 -19
14 -4 25 -11 25 -16 0 -11 -51 9 -62 25 -11 15 -10 37 2 30 6 -3 10 -12 10
-20z m21 -75 c5 0 9 -4 9 -10 0 -5 -11 -10 -25 -10 -16 0 -25 6 -25 16 0 11 5
14 16 10 9 -3 20 -6 25 -6z m-7 -69 c15 -6 16 -9 5 -13 -8 -3 -20 1 -27 8 -14
15 -7 17 22 5z m50 -61 c14 -14 -24 -25 -42 -13 -9 5 -18 15 -20 23 -4 10 3
11 24 6 16 -4 33 -11 38 -16z m-45 -214 c7 -9 8 -17 2 -20 -14 -9 -41 4 -41
20 0 18 24 18 39 0z m46 -56 c3 -5 -1 -10 -9 -10 -9 0 -16 5 -16 10 0 6 4 10
9 10 6 0 13 -4 16 -10z m-35 -50 c-20 -13 -50 -13 -50 0 0 6 15 10 33 10 24 0
28 -3 17 -10z"/>
<path d="M8038 1543 c-20 -3 -25 -8 -21 -20 5 -12 2 -15 -10 -10 -9 4 -24 10
-32 13 -8 3 -15 1 -15 -5 0 -6 7 -11 15 -11 8 0 15 -4 15 -9 0 -4 -11 -6 -24
-4 -15 3 -23 10 -20 18 7 17 -49 27 -82 15 -14 -6 -60 -8 -103 -5 -42 4 -89 2
-106 -4 -28 -9 -29 -9 -5 -10 14 -1 32 -6 40 -12 11 -7 0 -9 -39 -7 -43 2 -56
-2 -68 -18 -13 -17 -12 -19 13 -24 34 -6 29 -25 -6 -22 -22 2 -23 1 -7 -9 17
-10 17 -12 2 -29 -13 -15 -15 -37 -9 -169 4 -91 11 -151 17 -151 6 0 19 7 29
17 12 10 18 12 18 4 0 -25 -21 -51 -41 -51 -16 0 -19 -4 -13 -22 3 -12 8 -36
9 -53 3 -35 18 -40 73 -26 27 8 42 18 45 32 5 17 11 20 31 15 20 -5 25 -2 28
16 3 22 9 24 137 34 74 6 145 9 158 6 18 -3 23 0 23 16 0 12 9 26 20 32 18 10
19 8 14 -19 -6 -30 -6 -30 32 -24 52 8 76 30 72 67 -5 49 -46 71 -131 69 -63
-1 -191 -29 -144 -32 9 -1 17 -7 17 -14 0 -25 -11 -26 -37 -4 -13 12 -32 23
-41 23 -9 1 -38 5 -64 9 -45 7 -47 6 -62 -24 -11 -21 -13 -31 -5 -31 8 0 8 -4
0 -14 -10 -11 -8 -16 9 -21 24 -8 17 -25 -10 -25 -10 0 -20 -4 -22 -9 -1 -5
-15 -13 -30 -16 -25 -6 -28 -5 -28 19 0 18 8 30 30 41 16 8 29 19 28 23 -1 4
4 27 11 50 9 33 9 52 2 75 -8 22 -8 33 0 38 7 4 9 23 4 57 -9 66 3 72 135 72
56 0 110 5 121 10 14 8 19 7 19 -1 0 -20 165 -6 190 16 21 19 27 45 11 45 -16
0 -24 42 -10 51 34 21 -91 36 -183 22z m-138 -87 c0 -15 -24 -28 -34 -19 -13
14 -5 33 14 33 11 0 20 -6 20 -14z m-240 -82 c0 -17 -22 -14 -28 4 -2 7 3 12
12 12 9 0 16 -7 16 -16z m50 -240 c0 -28 -10 -35 -39 -27 -21 5 -21 6 -4 25
10 11 17 22 16 24 -10 15 -1 25 12 14 8 -7 15 -23 15 -36z m307 -58 c-6 -19
-22 -16 -33 8 -11 23 -10 24 13 13 13 -6 22 -15 20 -21z"/>
<path d="M6867 1496 c-100 -18 -112 -33 -113 -150 -1 -90 6 -129 23 -113 4 4
2 16 -4 27 -10 15 -9 19 4 24 20 8 45 -24 32 -41 -7 -7 -6 -13 1 -18 22 -14 9
-26 -21 -20 l-32 7 7 -118 c4 -66 12 -121 17 -122 6 -3 5 -9 -1 -18 -14 -16
-3 -144 12 -141 6 1 13 -4 15 -11 3 -8 -1 -10 -11 -6 -11 4 -16 0 -16 -14 0
-13 9 -22 25 -26 14 -4 25 -11 25 -16 0 -6 -11 -10 -25 -10 -21 0 -25 -5 -25
-30 0 -32 9 -37 27 -19 6 6 17 9 25 6 8 -3 3 -9 -14 -17 -18 -9 -28 -21 -28
-35 0 -27 34 -60 51 -49 7 4 10 3 5 -4 -14 -23 16 -22 59 4 48 28 77 64 52 64
-8 0 -20 7 -27 15 -7 9 -19 14 -27 11 -7 -3 -13 -1 -13 4 0 5 9 12 20 15 11 3
20 13 20 20 0 8 9 20 19 27 17 12 18 21 10 101 -6 55 -5 96 1 113 10 25 13 26
68 22 42 -3 75 -15 125 -43 44 -24 64 -40 56 -45 -8 -6 1 -24 32 -64 38 -49
48 -56 69 -51 20 5 23 4 13 -6 -20 -20 -15 -53 10 -82 12 -14 32 -38 45 -53
21 -25 25 -26 49 -13 19 10 27 11 30 3 3 -9 15 -8 43 4 44 17 52 41 25 78 -8
12 -12 24 -8 27 3 4 -6 11 -20 16 -18 7 -24 15 -20 29 8 32 -23 77 -106 159
-75 73 -93 107 -51 96 14 -4 25 3 37 26 19 32 28 37 38 21 7 -12 56 42 80 89
13 26 16 52 13 112 -3 69 -6 81 -34 116 -45 56 -102 91 -163 103 -72 13 -340
11 -424 -4z m413 -66 c8 -5 12 -12 9 -15 -8 -8 -39 5 -39 16 0 11 11 11 30 -1z
m96 -42 c9 -30 -22 -54 -43 -32 -8 7 -21 14 -29 14 -36 0 5 28 58 39 4 0 10
-9 14 -21z m-181 -29 c59 -8 73 -14 95 -40 24 -29 25 -34 16 -93 -9 -56 -13
-64 -39 -76 -22 -9 -26 -15 -16 -21 16 -10 7 -12 -35 -9 -18 1 -26 -2 -22 -9
4 -6 15 -11 25 -11 10 0 23 -11 29 -25 6 -14 16 -25 22 -25 6 0 8 -4 5 -10
-12 -19 -62 -11 -77 12 l-15 22 -5 -27 c-3 -14 -1 -24 3 -21 5 3 9 0 9 -6 0
-6 -10 -10 -22 -8 -32 4 -38 53 -7 61 12 3 19 11 17 19 -4 10 -33 13 -116 12
-105 -1 -112 1 -118 20 -10 29 -12 146 -5 192 6 34 10 38 51 49 47 11 89 10
205 -6z m68 14 c-7 -2 -19 -2 -25 0 -7 3 -2 5 12 5 14 0 19 -2 13 -5z m-398
-65 c-10 -34 -23 -44 -31 -25 -6 18 11 47 28 47 5 0 6 -10 3 -22z m13 -116 c2
-8 -8 -12 -30 -12 -31 1 -32 1 -13 15 21 17 37 15 43 -3z m577 -14 c-11 -6
-23 -16 -27 -22 -4 -6 -10 -7 -14 -3 -9 9 25 36 46 36 10 0 9 -3 -5 -11z
m-625 -53 c-7 -8 -16 -12 -21 -9 -13 8 -1 24 18 24 13 0 13 -3 3 -15z m68
-224 c3 -8 -1 -12 -9 -9 -7 2 -15 10 -17 17 -3 8 1 12 9 9 7 -2 15 -10 17 -17z
m-14 -247 c3 -9 6 -17 6 -18 0 -2 -13 -3 -30 -3 -29 0 -29 1 -12 18 22 22 28
23 36 3z m56 -24 c0 -5 -7 -10 -15 -10 -8 0 -15 5 -15 10 0 6 7 10 15 10 8 0
15 -4 15 -10z"/>
<path d="M7205 1080 c-4 -6 3 -10 14 -10 25 0 27 6 6 13 -8 4 -17 2 -20 -3z"/>
<path d="M5205 1490 c-3 -5 1 -10 10 -10 9 0 13 5 10 10 -3 6 -8 10 -10 10 -2
0 -7 -4 -10 -10z"/>
<path d="M6243 1460 c-98 -15 -236 -104 -275 -176 -47 -87 -91 -304 -70 -347
6 -12 15 -49 21 -82 20 -110 102 -236 171 -265 16 -7 30 -16 30 -20 0 -19 127
-42 205 -37 184 11 232 32 227 98 -1 9 15 24 36 34 33 17 35 19 15 23 -13 2
-23 8 -23 13 0 5 12 6 28 3 15 -4 23 -3 19 2 -5 5 -29 9 -55 9 -55 0 -67 20
-16 28 42 7 98 -18 90 -40 -3 -7 1 -13 9 -13 18 0 55 100 55 148 0 39 -28 82
-54 82 -13 0 -36 -41 -36 -65 0 -8 -17 -22 -37 -32 -42 -19 -66 -44 -84 -85
-6 -15 -15 -26 -19 -23 -4 2 -16 -2 -26 -10 -18 -14 -18 -14 6 -15 34 0 70
-11 70 -20 0 -10 -79 -35 -86 -27 -4 4 -1 14 7 23 12 15 8 15 -46 11 -33 -3
-78 -9 -100 -12 -31 -5 -37 -4 -25 5 12 10 11 11 -9 6 -22 -4 -73 24 -106 58
-5 6 -19 11 -30 11 -15 0 -19 6 -17 25 1 14 -5 39 -15 57 -14 26 -20 30 -35
22 -14 -7 -18 -6 -18 6 0 8 9 15 20 15 16 0 18 4 11 23 -4 12 -6 28 -4 35 9
23 -7 62 -25 62 -16 1 -16 1 1 14 9 7 17 22 17 32 0 10 14 62 31 114 29 89 34
97 78 126 37 25 46 37 44 58 -2 31 12 35 20 6 3 -11 10 -20 17 -20 7 0 9 8 5
20 -5 14 -2 20 9 20 9 0 16 -7 16 -16 0 -11 5 -14 16 -10 9 4 22 2 28 -3 6 -4
27 -11 47 -15 21 -4 42 -13 48 -20 6 -8 25 -16 41 -20 21 -4 30 -11 30 -25 0
-11 11 -33 25 -49 14 -17 25 -35 25 -41 0 -29 60 -32 123 -6 28 12 32 53 8 85
-11 16 -18 36 -15 44 4 11 0 16 -10 16 -10 0 -16 9 -16 24 0 14 -10 30 -26 41
-24 16 -26 16 -41 -2 -13 -17 -14 -16 -9 9 5 21 1 31 -17 42 -64 43 -199 63
-304 46z m22 -80 c-3 -5 -10 -10 -16 -10 -5 0 -9 5 -9 10 0 6 7 10 16 10 8 0
12 -4 9 -10z m363 -111 c12 -19 11 -20 -10 -17 -12 2 -24 11 -26 21 -5 24 20
21 36 -4z m-583 -19 c18 -7 19 -8 3 -15 -21 -8 -48 0 -48 15 0 12 17 12 45 0z
m508 -5 c-3 -17 -30 -17 -37 0 -4 13 -1 16 17 13 12 -2 21 -7 20 -13z m117
-25 c0 -10 -31 -18 -47 -13 -23 8 -13 20 17 21 17 0 30 -3 30 -8z m-688 -65
c11 -14 26 -25 34 -25 18 0 18 -5 -2 -35 -11 -17 -26 -25 -45 -25 -33 0 -34 4
-14 43 14 27 13 28 -5 22 -23 -7 -28 13 -8 33 16 16 17 16 40 -13z m62 -80
c-6 -16 -24 -21 -24 -7 0 11 11 22 21 22 5 0 6 -7 3 -15z m-44 -45 c0 -5 -9
-6 -20 -3 -11 3 -20 9 -20 13 0 5 9 6 20 3 11 -3 20 -9 20 -13z m10 -44 c0 -9
-15 -15 -45 -18 -57 -4 -58 8 -2 20 23 6 43 10 45 11 1 1 2 -5 2 -13z m-40
-46 c0 -5 -12 -10 -27 -9 l-28 1 25 8 c14 4 26 8 28 9 1 1 2 -3 2 -9z m29 -81
c17 -6 36 -20 42 -30 8 -16 6 -19 -13 -18 -13 1 -39 -4 -58 -10 -31 -9 -33 -9
-16 4 15 12 17 17 7 29 -7 8 -10 20 -6 26 8 12 5 12 44 -1z m21 -90 c0 -5 7
-9 15 -9 25 0 17 -15 -15 -27 -34 -13 -43 -5 -34 31 4 16 11 23 20 19 8 -3 14
-9 14 -14z m150 -94 c0 -8 14 -15 33 -18 24 -3 21 -4 -15 -5 -40 -2 -48 1 -48
16 0 10 3 22 6 25 10 9 24 -2 24 -18z m185 -59 c17 -12 17 -16 5 -31 -12 -15
-15 -15 -26 7 -23 40 -14 50 21 24z m92 -13 c-9 -9 -19 -14 -23 -11 -10 10 6
28 24 28 15 0 15 -1 -1 -17z m-24 -30 c-7 -2 -21 -2 -30 0 -10 3 -4 5 12 5 17
0 24 -2 18 -5z"/>
<path d="M5572 1413 c-12 -3 -19 -9 -16 -15 5 -7 -5 -9 -30 -4 -40 8 -48 0
-13 -14 21 -8 21 -9 -5 -9 -18 -1 -28 4 -28 13 0 19 -50 29 -83 17 -15 -6 -62
-8 -104 -5 -43 3 -91 1 -108 -5 l-30 -9 38 -1 c53 -1 46 -21 -9 -21 -33 0 -43
3 -39 13 4 6 -3 1 -14 -12 -28 -31 -26 -39 7 -43 15 -2 26 -7 24 -13 -2 -5
-15 -8 -30 -7 -23 4 -24 2 -13 -12 11 -13 10 -18 -4 -32 -10 -10 -14 -26 -11
-43 3 -14 8 -81 12 -148 5 -93 10 -123 20 -123 7 0 17 8 23 17 13 25 21 13 10
-15 -5 -13 -18 -26 -30 -29 -15 -4 -19 -11 -15 -27 3 -11 6 -33 6 -47 0 -34
20 -42 76 -28 33 9 44 16 44 31 0 15 6 19 28 16 21 -2 28 1 30 18 3 20 11 22
110 29 59 4 130 9 157 10 42 1 50 5 53 23 2 11 10 23 19 26 21 8 30 -1 15 -16
-21 -21 -13 -28 28 -28 62 0 95 43 70 89 -12 23 -79 51 -121 51 -45 0 -179
-33 -151 -38 17 -3 21 -8 17 -21 -4 -14 3 -22 25 -31 32 -13 35 -33 7 -38 -12
-2 -17 3 -17 17 0 12 -4 21 -9 21 -6 0 -23 13 -38 29 -23 24 -39 30 -93 35
l-65 7 -18 -32 c-21 -38 -32 -34 -17 6 6 16 10 51 10 79 -2 135 -1 159 12 167
7 5 59 9 115 9 56 0 113 4 128 10 19 7 24 7 19 -2 -11 -18 160 -4 191 16 30
20 31 30 5 56 -25 25 -25 37 -2 43 13 3 11 6 -11 15 -27 12 -127 14 -175 5z
m-139 -88 c-3 -17 -30 -17 -37 0 -4 13 -1 16 17 13 12 -2 21 -7 20 -13z m-243
-80 c0 -9 -6 -12 -15 -9 -8 4 -15 10 -15 15 0 5 7 9 15 9 8 0 15 -7 15 -15z
m50 -215 c14 -27 3 -63 -17 -56 -8 3 -22 6 -30 6 -14 0 -13 3 3 21 10 12 18
23 17 25 -2 2 -3 9 -3 14 0 17 19 11 30 -10z m60 -65 c-10 -12 -10 -15 3 -15
29 0 28 -19 0 -26 -15 -4 -30 -10 -33 -14 -3 -4 -15 -10 -27 -14 -20 -6 -23
-4 -23 21 0 21 8 32 33 45 43 22 64 24 47 3z"/>
<path d="M5245 940 c-3 -5 1 -10 9 -10 9 0 16 5 16 10 0 6 -4 10 -9 10 -6 0
-13 -4 -16 -10z"/>
<path d="M4560 1366 c-140 -39 -220 -128 -220 -245 0 -79 12 -107 69 -163 46
-45 121 -78 175 -78 12 0 48 -9 81 -20 33 -11 85 -26 115 -34 94 -26 131 -93
95 -170 -26 -53 -81 -79 -172 -80 -88 -1 -109 12 -176 113 -26 39 -59 77 -72
83 -35 16 -83 -7 -102 -48 -14 -29 -14 -36 -1 -66 8 -18 21 -48 28 -65 16 -42
80 -99 139 -126 100 -45 341 -28 341 24 0 11 -4 29 -10 39 -9 16 -5 19 30 25
22 4 47 2 57 -4 10 -6 13 -11 6 -11 -7 0 -17 -9 -23 -20 -9 -16 -8 -20 6 -20
10 0 14 3 11 6 -4 4 8 15 26 24 17 9 46 36 62 59 29 41 30 46 28 142 -2 117
-26 176 -75 186 -16 3 -28 11 -28 18 0 22 -198 85 -269 85 l-34 0 24 -26 24
-26 -34 4 c-29 3 -34 7 -37 32 -4 38 -18 46 -81 46 -57 0 -75 14 -47 35 15 11
16 16 7 26 -12 12 -11 16 48 131 5 10 9 27 9 39 0 12 5 19 13 16 6 -2 20 2 30
11 9 8 20 12 24 8 4 -3 -3 -13 -15 -22 -28 -19 -29 -37 -1 -29 16 5 19 4 14
-5 -6 -10 1 -11 26 -8 37 6 119 -20 150 -48 17 -15 99 -27 99 -14 0 8 59 4 67
-4 4 -3 -1 -6 -10 -6 -11 0 -17 -8 -17 -21 0 -17 -4 -20 -24 -15 -17 4 -26 1
-30 -10 -9 -23 -7 -36 3 -30 5 3 11 0 14 -8 7 -17 43 -11 69 11 36 31 29 121
-12 158 -19 17 -20 17 -38 -5 -26 -32 -114 -38 -143 -9 -10 10 -27 20 -36 20
-40 3 67 18 132 19 l70 1 -27 23 c-34 30 -120 64 -125 49 -3 -7 -22 -6 -61 3
-69 16 -112 16 -172 0z m155 -16 c-3 -5 -12 -7 -20 -3 -21 7 -19 13 6 13 11 0
18 -4 14 -10z m60 -20 c4 -6 -5 -10 -19 -10 -16 0 -26 -6 -26 -15 0 -8 -7 -15
-15 -15 -12 0 -13 4 -3 25 11 26 51 35 63 15z m-104 -33 c-13 -13 -26 -3 -16
12 3 6 11 8 17 5 6 -4 6 -10 -1 -17z m-166 4 c10 -18 -17 -23 -33 -7 -15 15
-15 16 5 16 12 0 24 -4 28 -9z m66 -281 c26 -14 24 -25 -6 -38 -28 -13 -65
-15 -89 -6 -31 12 -16 24 29 24 25 0 45 5 45 10 0 6 -11 8 -25 4 -15 -4 -25
-2 -25 5 0 14 45 14 71 1z m199 -40 c0 -5 -6 -10 -14 -10 -8 0 -23 -3 -33 -6
-16 -5 -16 -4 1 10 22 18 46 21 46 6z m116 -34 c21 -21 18 -26 -16 -26 -32 0
-37 9 -18 28 15 15 16 15 34 -2z m-166 -6 c0 -5 -9 -10 -19 -10 -11 0 -23 5
-26 10 -4 6 5 10 19 10 14 0 26 -4 26 -10z m-53 -31 c28 -11 28 -11 5 -20 -28
-11 -52 -2 -45 17 6 17 5 17 40 3z m163 -20 c0 -5 -7 -9 -15 -9 -15 0 -20 12
-9 23 8 8 24 -1 24 -14z m60 1 c0 -5 -5 -12 -11 -16 -14 -8 -33 11 -25 25 7
11 36 4 36 -9z m48 1 c3 -8 -1 -12 -9 -9 -7 2 -15 10 -17 17 -3 8 1 12 9 9 7
-2 15 -10 17 -17z"/>
<path d="M3774 1321 c-48 -22 -80 -59 -94 -109 -10 -39 -6 -47 25 -55 18 -4
18 -5 -2 -6 -34 -2 -48 -32 -118 -242 -35 -107 -79 -236 -99 -287 -20 -51 -39
-112 -43 -137 -5 -40 -3 -47 25 -74 24 -24 39 -31 71 -31 50 0 71 27 94 124
27 112 28 112 154 120 59 3 141 7 181 8 l74 1 23 -57 c32 -79 69 -133 105
-151 26 -14 34 -14 65 -1 44 19 53 40 29 68 -19 21 -19 21 0 15 16 -6 18 -3
13 20 -12 63 -32 103 -51 103 -15 0 -16 3 -7 14 10 11 4 31 -27 93 -22 43 -74
159 -116 258 -117 276 -133 302 -203 331 -41 18 -50 17 -99 -5z m86 -248 c0
-13 6 -26 14 -29 7 -3 16 -22 20 -43 3 -21 21 -71 39 -112 59 -128 68 -116
-83 -124 -72 -4 -133 -5 -135 -3 -3 3 9 44 25 93 17 49 30 106 30 127 0 21 5
38 11 38 6 0 8 9 4 20 -3 11 -2 20 4 20 5 0 15 16 21 36 12 34 13 35 31 18 10
-9 19 -28 19 -41z m-86 -348 c-4 -8 -10 -15 -15 -15 -5 0 -9 7 -9 15 0 8 7 15
15 15 9 0 12 -6 9 -15z"/>
<path d="M2702 1280 c-29 -4 -63 -15 -76 -24 -30 -19 -50 -77 -42 -119 4 -18
7 -42 6 -55 0 -18 4 -22 19 -17 26 8 48 -20 31 -40 -9 -10 -9 -15 -1 -15 6 0
11 -6 11 -13 0 -9 -10 -12 -30 -9 -35 5 -35 7 -20 -137 6 -54 16 -98 23 -103
9 -6 9 -8 0 -8 -20 0 -18 -129 2 -136 8 -4 15 -10 15 -15 0 -5 -7 -9 -15 -9
-24 0 -17 -30 10 -40 30 -11 34 -35 5 -27 -17 4 -20 0 -20 -30 0 -30 2 -34 15
-23 8 6 20 10 27 7 8 -3 2 -10 -15 -18 -23 -10 -27 -17 -22 -38 7 -30 40 -61
64 -61 26 0 99 43 104 62 5 17 -38 55 -58 50 -5 -1 0 5 13 14 12 9 22 23 22
31 0 7 7 16 15 19 12 5 14 27 12 117 l-2 112 52 3 c44 3 64 -3 135 -39 59 -30
78 -44 66 -48 -15 -5 -11 -15 28 -64 38 -47 50 -56 68 -51 17 5 19 4 9 -7 -20
-20 -15 -48 12 -75 14 -14 25 -28 25 -31 0 -9 50 -53 61 -53 5 0 9 5 9 11 0 7
10 9 25 5 25 -6 95 16 95 31 0 4 -8 27 -17 50 -12 28 -26 44 -41 48 -19 5 -22
9 -12 20 18 22 -25 89 -110 169 -47 44 -70 72 -66 82 3 9 11 12 17 9 12 -8 49
23 49 42 0 16 16 17 25 2 9 -14 41 16 71 67 54 91 40 205 -32 280 -72 73 -91
78 -314 80 -107 1 -219 -1 -248 -6z m419 -70 c6 0 8 -4 5 -9 -8 -12 -46 -2
-46 11 0 6 7 7 16 4 9 -3 20 -6 25 -6z m90 -41 c9 -17 8 -23 -2 -30 -20 -12
-26 -11 -56 8 l-26 17 29 13 c39 16 42 16 55 -8z m-116 -9 c3 -5 -3 -10 -15
-10 -12 0 -18 5 -15 10 3 6 10 10 15 10 5 0 12 -4 15 -10z m-52 -22 c37 -5 67
-14 67 -19 0 -4 9 -16 20 -27 18 -16 18 -23 8 -84 -9 -58 -14 -67 -35 -73 -16
-4 -23 -11 -19 -20 3 -10 -5 -15 -27 -17 l-32 -4 25 -11 c18 -9 20 -12 8 -12
-10 -1 -18 -6 -18 -12 0 -6 9 -9 19 -6 21 5 56 -24 44 -36 -15 -16 -62 -7 -68
13 -9 27 -22 25 -27 -4 -4 -18 -1 -23 10 -18 10 3 13 1 8 -6 -10 -17 -46 -15
-46 2 0 8 -3 21 -6 30 -4 10 -1 16 9 16 21 0 41 26 27 35 -14 8 -183 7 -205
-1 -24 -10 -38 43 -37 145 1 52 4 97 8 100 3 3 24 11 47 17 44 12 108 10 220
-8z m-346 -51 c-14 -32 -27 -35 -27 -7 0 10 8 23 17 29 24 13 25 9 10 -22z
m16 -112 c1 -5 -14 -11 -33 -13 -33 -2 -34 -2 -15 13 21 17 45 17 48 0z m572
-17 c-11 -6 -23 -16 -27 -22 -5 -7 -8 -8 -8 0 0 15 22 34 40 34 11 -1 10 -4
-5 -12z m-621 -53 c-4 -8 -10 -15 -15 -15 -5 0 -9 7 -9 15 0 8 7 15 15 15 9 0
12 -6 9 -15z m66 -221 c0 -14 -3 -14 -15 -4 -8 7 -15 14 -15 16 0 2 7 4 15 4
8 0 15 -7 15 -16z m-10 -257 c0 -7 -11 -12 -25 -12 -30 0 -31 3 -8 21 19 13
33 10 33 -9z m55 -8 c10 -15 -1 -23 -20 -15 -9 3 -13 10 -10 16 8 13 22 13 30
-1z"/>
<path d="M2240 1247 c-3 -3 -36 -7 -72 -8 -45 -1 -69 -6 -72 -16 -3 -7 -14
-13 -25 -13 -11 0 -32 -5 -47 -12 -23 -11 -28 -10 -44 10 -18 22 -22 22 -114
14 -53 -5 -102 -15 -111 -22 -22 -18 -19 -76 5 -100 18 -18 33 -20 134 -20 63
0 121 -3 130 -6 13 -5 16 -23 16 -93 0 -47 6 -142 12 -211 6 -69 12 -157 12
-196 1 -42 6 -77 14 -86 10 -13 10 -17 -4 -22 -13 -5 -15 -14 -11 -42 8 -50
32 -83 73 -100 30 -13 38 -13 64 1 38 20 38 29 2 22 -21 -4 -29 -2 -29 9 0 10
12 14 38 14 21 0 40 4 43 9 3 4 3 31 -1 59 -5 45 -8 51 -32 55 l-26 3 27 12
c26 11 27 13 22 79 -9 134 -24 424 -24 462 0 38 1 39 44 45 33 5 47 13 51 27
5 15 13 19 28 15 12 -3 28 -6 36 -6 8 0 11 -6 7 -15 -12 -33 93 -8 115 27 18
27 10 77 -13 89 -23 13 -238 26 -248 16z m-10 -22 c0 -16 -31 -63 -45 -68 -22
-9 -20 42 3 59 17 14 42 18 42 9z m-110 -55 c0 -13 -20 -13 -40 0 -12 8 -9 10
13 10 15 0 27 -4 27 -10z m310 1 c0 -11 -31 -24 -39 -16 -3 3 1 10 9 15 19 12
30 12 30 1z m-445 -42 c9 -13 6 -16 -30 -25 l-30 -7 19 22 c21 23 32 26 41 10z
m460 -9 c-3 -5 -10 -10 -16 -10 -5 0 -9 5 -9 10 0 6 7 10 16 10 8 0 12 -4 9
-10z m-318 -60 c3 -11 14 -20 24 -20 10 0 21 -5 24 -10 6 -10 -36 -5 -56 6
-12 6 -17 44 -7 44 5 0 12 -9 15 -20z m17 -76 c25 -9 19 -24 -9 -24 -16 0 -25
6 -25 15 0 16 9 19 34 9z m1 -74 c3 -5 -1 -10 -9 -10 -9 0 -16 5 -16 10 0 6 4
10 9 10 6 0 13 -4 16 -10z m45 -61 c0 -14 -46 -11 -59 4 -6 8 -8 16 -5 20 8 8
64 -13 64 -24z m-52 -201 c18 -18 15 -28 -8 -28 -13 0 -20 7 -20 20 0 23 10
26 28 8z m57 -68 c-3 -5 -13 -10 -21 -10 -8 0 -14 5 -14 10 0 6 9 10 21 10 11
0 17 -4 14 -10z m-54 -51 c-16 -6 -28 -6 -35 1 -7 7 1 10 25 9 32 0 33 -1 10
-10z"/>
<path d="M818 1169 c-8 -6 -2 -9 20 -9 27 0 32 -4 32 -24 0 -16 7 -27 21 -31
26 -9 43 7 35 32 -7 22 -86 45 -108 32z"/>
<path d="M1075 1156 c-43 -43 -43 -45 -11 -583 16 -262 24 -297 72 -309 15 -4
70 -4 123 -1 53 4 169 11 259 17 90 5 172 14 182 20 29 15 36 56 17 96 -13 26
-23 33 -44 34 -15 0 -41 1 -58 2 -16 1 -103 -2 -191 -6 l-161 -8 -6 53 c-4 30
-9 125 -13 211 -5 115 -10 161 -20 169 -16 13 -19 59 -4 59 13 0 13 154 -1
205 -13 50 -32 65 -81 65 -28 0 -46 -7 -63 -24z"/>
<path d="M775 1140 c-3 -5 1 -10 9 -10 9 0 16 5 16 10 0 6 -4 10 -9 10 -6 0
-13 -4 -16 -10z"/>
<path d="M224 1132 c-28 -19 -44 -92 -19 -92 5 0 4 -4 -4 -9 -11 -7 -9 -10 8
-16 27 -8 27 -25 1 -25 -23 0 -26 -21 -8 -50 9 -15 9 -24 -1 -43 -7 -13 -11
-35 -9 -48 3 -23 6 -24 68 -22 60 2 63 0 45 -13 -14 -11 -33 -14 -65 -10 l-45
6 7 -141 c9 -153 18 -204 37 -204 6 0 15 -5 19 -11 4 -6 17 -14 29 -18 13 -4
23 -14 23 -23 0 -12 -7 -14 -30 -9 -34 6 -37 -2 -15 -44 17 -32 26 -36 55 -20
25 13 180 1 180 -15 0 -9 -11 -10 -42 -4 -57 11 -136 11 -142 0 -8 -13 34 -48
87 -71 69 -31 137 -35 257 -16 189 30 260 87 294 235 21 92 22 319 2 346 -10
14 -11 25 -4 39 12 22 2 103 -14 112 -7 4 -8 2 -4 -4 5 -8 0 -12 -13 -12 -26
0 -27 17 -2 25 22 7 44 67 24 64 -35 -6 -45 15 -12 24 33 9 12 27 -31 27 -54
0 -74 -9 -59 -26 12 -15 2 -18 -25 -8 -20 8 -21 30 -1 38 23 9 18 26 -9 26
-29 0 -49 -22 -40 -44 9 -23 61 -48 84 -41 10 3 21 2 24 -4 7 -11 -46 -31 -80
-31 -22 0 -24 -4 -24 -56 0 -30 5 -64 11 -75 7 -15 7 -24 -1 -34 -9 -11 -7
-20 9 -41 24 -30 27 -49 9 -41 -10 3 -12 -26 -10 -134 3 -91 0 -139 -6 -139
-6 0 -12 -14 -14 -32 -2 -27 -8 -33 -35 -40 -43 -11 -42 -28 1 -28 49 0 54
-17 6 -22 -22 -2 -42 1 -44 7 -3 6 -9 4 -16 -5 -9 -11 -13 -12 -17 -2 -3 8
-28 12 -71 12 -99 1 -148 26 -175 90 -15 35 -26 49 -36 45 -11 -5 -12 -3 -1
10 15 18 6 184 -11 216 -6 11 -6 20 1 24 11 7 13 51 4 118 -6 43 -9 46 -30 41
-34 -9 -30 13 6 34 24 14 30 24 30 52 0 45 -32 115 -58 129 -23 12 -82 14 -98
3z m75 -165 c11 7 21 9 25 6 10 -10 -14 -43 -31 -43 -21 0 -53 29 -53 48 0 12
4 12 21 -4 16 -14 24 -16 38 -7z m551 -22 c-35 -20 -57 -20 -40 0 7 8 24 15
39 15 l26 -1 -25 -14z m80 -35 c-20 -13 -43 -13 -35 0 3 6 16 10 28 10 18 0
19 -2 7 -10z m-681 -199 c8 -5 11 -16 8 -25 -5 -14 -11 -15 -27 -6 -11 6 -20
17 -20 25 0 17 18 19 39 6z m696 -21 c-3 -5 -13 -10 -21 -10 -8 0 -14 5 -14
10 0 6 9 10 21 10 11 0 17 -4 14 -10z"/>
<path d="M7710 1070 c-12 -8 -10 -10 8 -10 13 0 20 4 17 10 -7 12 -6 12 -25 0z"/>
<path d="M2590 1031 c0 -11 4 -21 9 -21 18 0 21 18 6 30 -13 10 -15 9 -15 -9z"/>
<path d="M7725 935 c-16 -8 -54 -14 -82 -15 -49 0 -63 -7 -47 -23 4 -4 6 -42
5 -85 -2 -90 14 -169 38 -181 32 -18 108 -22 201 -10 52 6 163 12 245 13 105
1 158 5 177 15 29 15 54 62 45 85 -18 46 -131 68 -239 46 -77 -15 -257 -21
-279 -9 -14 7 -16 21 -11 94 5 93 4 96 -53 70z m-27 -111 c-3 -19 -34 -41 -43
-32 -4 3 -2 16 5 27 13 25 43 28 38 5z m97 -114 c6 -9 -15 -50 -26 -50 -3 0
-4 14 -1 30 4 30 16 39 27 20z m363 -43 c2 -12 -1 -15 -12 -11 -19 7 -22 38
-3 32 6 -3 13 -12 15 -21z"/>
<path d="M6560 870 c0 -5 7 -10 16 -10 8 0 12 5 9 10 -3 6 -10 10 -16 10 -5 0
-9 -4 -9 -10z"/>
<path d="M5260 805 c-14 -8 -47 -14 -75 -15 l-50 0 -3 -68 c-3 -84 15 -197 34
-213 26 -21 94 -27 198 -17 55 6 172 11 258 12 142 1 159 3 185 22 40 30 44
86 8 110 -36 23 -182 32 -226 13 -40 -16 -256 -16 -272 0 -7 7 -10 42 -8 91 3
87 -1 92 -49 65z m-32 -120 c-11 -24 -38 -35 -38 -16 0 23 14 41 31 41 16 0
17 -3 7 -25z m106 -103 c2 -4 -4 -19 -14 -32 l-19 -25 4 30 c2 17 4 31 4 33 2
5 20 1 25 -6z m359 -42 c6 -23 -3 -26 -21 -8 -16 16 -15 28 2 28 7 0 16 -9 19
-20z"/>
<path d="M9980 660 c-52 -3 -107 -12 -122 -20 -20 -9 -31 -10 -41 -2 -13 11
-327 3 -512 -13 -38 -4 -160 -10 -270 -15 -110 -4 -233 -14 -272 -20 -64 -11
-71 -15 -55 -26 15 -12 14 -13 -10 -14 -22 0 -28 5 -28 21 0 20 -3 20 -142 14
-79 -4 -224 -10 -323 -15 -200 -9 -285 -18 -285 -31 0 -5 -7 -9 -15 -9 -8 0
-15 5 -15 11 0 8 -20 9 -67 5 -38 -4 -131 -7 -208 -6 -78 1 -228 -8 -340 -19
-110 -12 -209 -21 -220 -21 -20 -1 -20 -1 0 -17 20 -15 20 -15 -2 -10 -25 6
-47 -15 -49 -47 -1 -12 -3 -27 -5 -34 -3 -11 28 -13 155 -12 88 0 162 3 165 5
4 2 119 8 256 15 138 6 300 16 360 21 61 5 138 9 171 9 61 -1 62 -1 81 36 19
38 52 63 40 30 -4 -9 -2 -16 3 -16 5 0 10 -10 12 -22 4 -27 -4 -26 246 -14
126 7 162 12 162 22 0 8 5 14 10 14 5 0 9 -6 7 -12 -1 -8 7 -12 23 -10 14 1
41 4 60 5 19 2 41 7 49 11 8 5 16 4 21 -3 12 -21 680 22 716 45 19 13 24 13
31 1 7 -12 52 -12 323 0 173 8 321 16 328 18 8 3 12 26 12 70 l0 65 -77 -2
c-43 -1 -121 -4 -173 -8z m-438 -102 c-6 -6 -15 -8 -19 -4 -4 4 -1 11 7 16 19
12 27 3 12 -12z m-957 -17 c-3 -6 -11 -11 -17 -11 -6 0 -6 6 2 15 14 17 26 13
15 -4z m-859 -41 c0 -23 -7 -25 -24 -8 -17 17 -15 28 6 28 11 0 18 -7 18 -20z
m359 10 c3 -5 0 -10 -7 -10 -7 0 -24 -3 -37 -7 -22 -6 -23 -5 -10 10 16 18 45
22 54 7z m545 -30 c0 -5 -11 -10 -25 -10 -14 0 -25 5 -25 10 0 6 11 10 25 10
14 0 25 -4 25 -10z m-820 -30 c0 -5 -9 -10 -21 -10 -11 0 -17 5 -14 10 3 6 13
10 21 10 8 0 14 -4 14 -10z m55 0 c3 -6 -4 -10 -17 -10 -18 0 -20 2 -8 10 19
12 18 12 25 0z m230 0 c-3 -5 -11 -10 -16 -10 -6 0 -7 5 -4 10 3 6 11 10 16
10 6 0 7 -4 4 -10z m-995 -24 c0 -13 -20 -26 -41 -26 -14 0 -11 28 4 33 23 10
37 7 37 -7z"/>
<path d="M6919 506 c-4 -5 -55 -7 -379 -22 -69 -3 -199 -12 -290 -20 -91 -9
-169 -15 -175 -15 -69 7 -145 6 -165 -1 -14 -5 -80 -9 -147 -8 -134 1 -290
-15 -311 -32 -9 -8 -16 -8 -24 0 -15 15 -100 15 -132 1 -19 -9 -29 -9 -40 0
-11 9 -15 8 -20 -4 -6 -18 -53 -20 -58 -3 -3 9 -50 9 -209 0 -112 -7 -386 -22
-609 -32 -223 -11 -484 -25 -580 -30 -96 -5 -249 -12 -340 -15 -91 -3 -252
-15 -359 -25 -107 -11 -199 -20 -205 -20 -5 0 -1 -7 10 -16 19 -15 19 -15 -2
-9 -28 7 -46 -15 -50 -62 l-3 -36 202 7 c305 11 393 16 492 27 94 10 99 10
179 9 27 -1 52 3 55 8 11 17 51 24 56 10 6 -14 -4 -14 380 2 132 6 287 15 345
20 58 6 258 17 445 25 516 24 589 30 616 49 29 20 51 21 25 1 -18 -14 -16 -15
30 -15 47 1 50 2 68 41 21 45 38 47 43 3 2 -16 8 -32 12 -36 4 -5 139 1 301
12 162 12 409 25 547 30 158 6 261 14 275 21 12 7 30 12 40 13 10 1 18 4 18 9
0 4 0 13 0 21 0 7 -10 16 -21 19 l-21 6 21 27 c11 15 21 31 21 35 0 9 -33 13
-41 5z m-684 -76 c3 -6 -1 -13 -10 -16 -19 -8 -30 0 -20 15 8 14 22 14 30 1z
m345 -25 c0 -8 -2 -15 -4 -15 -2 0 -11 -3 -19 -6 -12 -4 -14 0 -10 15 6 24 33
29 33 6z m-1320 -35 c0 -13 -5 -18 -15 -14 -8 4 -15 12 -15 20 0 8 7 14 15 14
8 0 15 -9 15 -20z m360 10 c0 -5 -6 -10 -14 -10 -8 0 -23 -3 -33 -7 -16 -6
-16 -5 -4 10 15 18 51 23 51 7z m705 -24 c-31 -13 -55 -11 -55 5 0 5 19 9 43
9 l42 -1 -30 -13z m-1413 -18 c-11 -11 -32 -3 -32 12 0 4 9 6 21 3 13 -4 17
-9 11 -15z m438 -18 c0 -5 -12 -10 -26 -10 -14 0 -23 4 -19 10 3 6 15 10 26
10 10 0 19 -4 19 -10z m50 0 c0 -5 -10 -10 -22 -10 -19 0 -20 2 -8 10 19 13
30 13 30 0z m-2465 -109 c8 -15 -35 -35 -47 -23 -6 6 -7 15 -4 21 9 14 43 14
51 2z"/>
<path d="M2705 279 c-22 -6 -47 -8 -55 -6 -9 2 -112 -2 -230 -10 -118 -8 -309
-18 -425 -23 -115 -5 -336 -16 -490 -24 -154 -9 -332 -18 -395 -21 -213 -10
-240 -14 -240 -35 0 -11 9 -24 20 -30 11 -6 20 -20 20 -32 0 -19 -4 -20 -52
-14 -29 4 -55 9 -57 12 -3 2 6 14 20 27 l24 22 -23 3 c-23 3 -23 4 -5 18 16
13 9 14 -67 9 -47 -3 -177 -10 -290 -16 -118 -6 -207 -15 -211 -21 -4 -6 -13
-7 -25 -1 -11 5 -47 7 -81 5 l-63 -4 0 -70 0 -70 63 6 c34 3 159 10 277 16
300 14 320 17 347 42 13 12 26 18 30 14 5 -4 -1 -14 -11 -22 -19 -13 -18 -14
12 -14 18 0 110 5 205 10 94 6 339 20 542 31 522 29 513 28 518 48 4 14 5 14
6 -1 1 -13 10 -18 30 -18 17 0 32 4 35 8 3 5 40 6 83 4 126 -6 480 16 520 33
19 8 38 13 42 11 4 -3 13 -1 21 5 10 6 11 9 3 9 -7 0 -13 7 -13 15 0 7 -8 18
-17 24 -16 9 -16 11 -2 28 40 46 25 53 -66 32z m-601 -55 c9 -3 16 -9 16 -13
0 -12 -44 -5 -48 7 -4 13 8 15 32 6z m610 -26 c3 -16 2 -28 -3 -28 -13 0 -21
27 -14 45 7 19 8 18 17 -17z m-720 -3 c-6 -16 -24 -21 -24 -7 0 11 11 22 21
22 5 0 6 -7 3 -15z m40 -54 c8 -12 -20 -22 -39 -15 -19 8 -9 24 15 24 10 0 21
-4 24 -9z m-1764 -111 c0 -5 -7 -10 -15 -10 -8 0 -15 5 -15 10 0 6 7 10 15 10
8 0 15 -4 15 -10z"/>
</g>
</svg>
